<svg xmlns="http://www.w3.org/2000/svg" xmlns:xlink="http://www.w3.org/1999/xlink" width="216" height="108" viewBox="0 0 216 108"><path d="M55.667 68.464v-4.279h7.677V51.956h4.279v12.229h8.01v4.279h-8.01v26.289h-4.279V68.464h-7.677zm23.327-9.892c0-.733.245-1.345.735-1.834.487-.489 1.099-.734 1.833-.734.733 0 1.345.245 1.834.734.49.489.733 1.101.733 1.834s-.244 1.345-.733 1.835c-.489.488-1.101.732-1.834.732-.735 0-1.346-.244-1.833-.732-.49-.49-.735-1.101-.735-1.835zm.367 5.613h4.279v30.568h-4.279V64.185zm8.68 0h4.402v2.75c.979-1.304 2.313-2.354 4.004-3.148s3.455-1.191 5.289-1.191c2.404 0 4.575.58 6.511 1.741a14.836 14.836 0 0 1 4.799 4.617c1.223-1.916 2.883-3.455 4.982-4.617 2.1-1.161 4.371-1.741 6.818-1.741 1.873 0 3.645.366 5.317 1.1a14.208 14.208 0 0 1 4.372 2.965 13.712 13.712 0 0 1 2.934 4.402 13.654 13.654 0 0 1 1.07 5.35l.061 18.342h-4.4l-.062-18.342c0-1.304-.244-2.527-.733-3.668s-1.152-2.14-1.986-2.996a9.257 9.257 0 0 0-2.935-2.018c-1.123-.489-2.334-.733-3.637-.733-1.307 0-2.52.244-3.639.733a9.518 9.518 0 0 0-4.984 5.014 9.196 9.196 0 0 0-.733 3.668l.061 18.342h-4.401l-.062-18.342a10.977 10.977 0 0 0-.886-3.76c-.511-1.161-1.184-2.16-2.018-2.995a9.136 9.136 0 0 0-2.904-1.957 8.97 8.97 0 0 0-3.546-.703 8.267 8.267 0 0 0-3.576.795c-1.122.529-2.111 1.232-2.966 2.109s-1.528 1.875-2.018 2.996-.733 2.292-.733 3.515l.06 18.342h-4.401l-.06-30.57zm58.752 15.221c0 1.712.327 3.333.979 4.861a12.591 12.591 0 0 0 2.688 4.004 12.575 12.575 0 0 0 4.004 2.69c1.531.652 3.15.979 4.862.979s3.331-.326 4.859-.979a12.556 12.556 0 0 0 4.006-2.69 11.96 11.96 0 0 0 2.077-2.812h4.709l-.184.489a16.557 16.557 0 0 1-3.577 5.35 16.951 16.951 0 0 1-5.349 3.607c-2.04.876-4.219 1.314-6.542 1.314s-4.504-.438-6.542-1.314a16.956 16.956 0 0 1-5.35-3.607 16.938 16.938 0 0 1-3.607-5.35c-.877-2.037-1.313-4.219-1.313-6.542s.437-4.503 1.313-6.541a16.995 16.995 0 0 1 3.607-5.35 16.994 16.994 0 0 1 5.35-3.607c2.038-.876 4.219-1.313 6.542-1.313s4.502.438 6.542 1.313a17.024 17.024 0 0 1 5.349 3.607 16.579 16.579 0 0 1 3.577 5.35 15.593 15.593 0 0 1 1.284 5.258h-29.226c-.037.448-.058.876-.058 1.283zm21.399-8.864a12.586 12.586 0 0 0-4.006-2.689c-1.528-.652-3.147-.979-4.859-.979s-3.331.326-4.862.979a12.638 12.638 0 0 0-6.387 5.99h22.438a13.45 13.45 0 0 0-2.324-3.301zm11.677-18.586h4.279v42.797h-4.279V51.956zm8.192 6.616c0-.733.244-1.345.734-1.834.488-.489 1.1-.734 1.833-.734.735 0 1.347.245 1.834.734.49.489.735 1.101.735 1.834s-.245 1.345-.735 1.835c-.487.488-1.099.732-1.834.732-.733 0-1.345-.244-1.833-.732-.49-.49-.734-1.101-.734-1.835zm.368 5.613h4.279v30.568h-4.279V64.185z"/><defs><path id="a" d="M31.326 79.407c-3.695-21.608 3.728-29.401 3.728-29.401C8.769 40.355 8.999 11.78 8.999 11.78c17.997 6.667 34.176 23.969 34.176 23.969l4.002 2.256c16.014-12.369 21.045 3.268 21.045 3.268l13.827 7.515s-14.475-5.565-15.589-4.081c-1.115 1.484-7.145 2.412-7.145 2.412s-14.38 4.268-14.103 12.805c.278 8.536-13.361 19.484-13.361 19.484"/></defs><clipPath id="b"><use xlink:href="#a" overflow="visible"/></clipPath><g clip-path="url(#b)"><path fill="#244790" d="M31.326 79.407c-3.695-21.608 3.728-29.401 3.728-29.401C8.769 40.355 8.999 11.78 8.999 11.78c17.997 6.667 34.176 23.969 34.176 23.969l4.002 2.256c16.014-12.369 21.045 3.268 21.045 3.268l13.827 7.515s-14.475-5.565-15.589-4.081c-1.115 1.484-7.145 2.412-7.145 2.412s-14.38 4.268-14.103 12.805c.278 8.536-13.361 19.484-13.361 19.484"/><path fill-rule="evenodd" clip-rule="evenodd" fill="#1994CD" d="M9.081 13.596s23.153 7.044 31.315 29.686c.54 1.503-3.169 5.251-5.506 6.915-.8-.259-9.897-2.672-17.627-12.663-4.165-5.383-7.219-13.952-8.182-23.938z"/><linearGradient id="c" gradientUnits="userSpaceOnUse" x1="16.261" y1="37.115" x2="28.18" y2="25.196" gradientTransform="matrix(1.0065 .011 -.0114 .9992 .67 -.035)"><stop offset="0" stop-color="#1994cd" stop-opacity="0"/><stop offset=".059" stop-color="#1d87c2" stop-opacity=".061"/><stop offset=".178" stop-color="#2173b1" stop-opacity=".184"/><stop offset=".303" stop-color="#2264a5" stop-opacity=".314"/><stop offset=".434" stop-color="#22589c" stop-opacity=".45"/><stop offset=".576" stop-color="#235096" stop-opacity=".596"/><stop offset=".733" stop-color="#234a92" stop-opacity=".758"/><stop offset=".939" stop-color="#234991" stop-opacity=".972"/><stop offset="1" stop-color="#244790"/></linearGradient><path fill-rule="evenodd" clip-rule="evenodd" fill="url(#c)" d="M9.083 13.495s23.215 7.061 31.396 29.76c.544 1.507-3.245 5.273-5.588 6.941-.801-.26-9.853-2.689-17.604-12.703-4.176-5.396-7.239-13.988-8.204-23.998z"/><linearGradient id="d" gradientUnits="userSpaceOnUse" x1="34.748" y1="67.594" x2="40.682" y2="71.02"><stop offset=".311" stop-color="#244790"/><stop offset="1" stop-color="#1994cd"/></linearGradient><path fill-rule="evenodd" clip-rule="evenodd" fill="url(#d)" d="M45.225 60.157s.299 2.957-2.734 7.673c-2.498 3.886-6.417 8.227-10.639 11.577 0 0 1.939-10.449 3.963-13.652 3.087-4.891 9.41-5.598 9.41-5.598z"/><linearGradient id="e" gradientUnits="userSpaceOnUse" x1="61.086" y1="48.124" x2="61.086" y2="44.749"><stop offset=".349" stop-color="#1994cd"/><stop offset=".404" stop-color="#1c8ac5"/><stop offset=".603" stop-color="#216cac"/><stop offset=".775" stop-color="#22589c"/><stop offset=".911" stop-color="#234b93"/><stop offset=".995" stop-color="#244790"/></linearGradient><path fill-rule="evenodd" clip-rule="evenodd" fill="url(#e)" d="M56.537 48.124s2.601-.978 2.778-1.006c.176-.028 5.01-.851 6.216-1.712.945-.678-4.809-.823-5.782-.474-.971.348-3.212 3.192-3.212 3.192z"/><path fill="#FFF" d="M31.784 74.458a1.996 1.996 0 1 1-3.993 0 1.998 1.998 0 0 1 3.993 0zm5.919 1.172a1.732 1.732 0 1 1-3.465 0c0-.959.776-1.733 1.733-1.733a1.73 1.73 0 0 1 1.732 1.733zm-2.745-4.539a1.732 1.732 0 1 1-3.465 0 1.732 1.732 0 1 1 3.465 0zm-4.26-3.697a1.73 1.73 0 0 1-1.732 1.731 1.733 1.733 0 0 1 0-3.464 1.732 1.732 0 0 1 1.732 1.733zm9.573 4.176a1.732 1.732 0 0 1-3.464 0 1.732 1.732 0 1 1 3.464 0zm-2.652-3.862c0 .783-.635 1.417-1.418 1.417a1.416 1.416 0 1 1 0-2.834c.782 0 1.418.634 1.418 1.417zm-3.478-2.333a1.418 1.418 0 0 1-2.836 0 1.417 1.417 0 1 1 2.836 0zm8.333 2.563a1.419 1.419 0 0 1-2.836 0 1.417 1.417 0 1 1 2.836 0zm3.06-3.736a.947.947 0 1 1-1.894 0 .947.947 0 1 1 1.894 0zm-8.668-2.482a.502.502 0 1 1-1.004 0 .502.502 0 0 1 1.004 0zm-2.633-1.742a.501.501 0 1 1-1.004 0 .502.502 0 1 1 1.004 0zm-1.214-2.129a.501.501 0 0 1-.503.501.5.5 0 1 1 0-1.002.5.5 0 0 1 .503.501zm6.335 4.58a.503.503 0 0 1-1.004 0 .501.501 0 1 1 1.004 0zm2.488.106a.501.501 0 1 1-1.004 0 .503.503 0 0 1 1.004 0zm2.376-.312a.504.504 0 0 1-.503.504.504.504 0 0 1-.501-.504.501.501 0 1 1 1.004 0zm-4.864-.916a.288.288 0 1 1-.576 0 .287.287 0 1 1 .576 0zm-.071-.699a.145.145 0 0 1-.144.144.146.146 0 0 1-.145-.144.144.144 0 1 1 .289 0zm-1.823-.451a.144.144 0 1 1-.289 0 .144.144 0 1 1 .289 0zm-1.603-1.069a.144.144 0 1 1-.288 0c0-.078.065-.144.144-.144.08 0 .144.066.144.144zm-1.218-1.74a.144.144 0 0 1-.145.143.144.144 0 0 1-.144-.143c0-.08.065-.146.144-.146.08 0 .145.066.145.146zm-.126-1.6c0 .08-.063.146-.144.146a.145.145 0 0 1-.144-.146c0-.08.064-.144.144-.144.081 0 .144.064.144.144zm.172-2.952a.144.144 0 0 1-.145.144.143.143 0 0 1-.143-.144c0-.08.064-.146.143-.146.081 0 .145.066.145.146zm-.191 1.334a.144.144 0 0 1-.288 0c0-.079.065-.144.144-.144.079 0 .144.065.144.144zm6.699 6.512c0 .08-.064.145-.144.145a.145.145 0 0 1 0-.289c.08 0 .144.065.144.144zm1.732-.246a.145.145 0 0 1-.289 0 .144.144 0 1 1 .289 0zm1.437-.418a.144.144 0 0 1-.144.143.144.144 0 0 1-.144-.143.144.144 0 0 1 .288 0zm-2.881 1.329a.288.288 0 1 1-.577 0c0-.16.128-.288.288-.288.161 0 .289.127.289.288zm-6.235-1.931a.287.287 0 0 1-.288.286.287.287 0 0 1-.289-.286.289.289 0 0 1 .577 0zm8.256 1.753a.289.289 0 1 1-.578 0c0-.158.129-.286.289-.286.16 0 .289.128.289.286zm1.388-.654a.289.289 0 0 1-.576 0 .29.29 0 0 1 .288-.29.29.29 0 0 1 .288.29zm-7.575.368a.287.287 0 0 1-.289.286.288.288 0 0 1-.288-.286.288.288 0 0 1 .577 0zm-3.296-3.353a.29.29 0 0 1-.289.289.288.288 0 1 1 0-.577c.16 0 .289.128.289.288zm-.227-1.956a.288.288 0 0 1-.576 0c0-.158.129-.286.288-.286.159 0 .288.128.288.286zm.227-3.171a.287.287 0 0 1-.289.287.287.287 0 1 1 0-.575c.16 0 .289.128.289.288zm0 1.579a.287.287 0 0 1-.289.287.287.287 0 0 1-.288-.287.288.288 0 1 1 .577 0zm11.861 7.335a.503.503 0 0 1-1.004 0 .503.503 0 0 1 1.004 0zm-13.024-6.03a.502.502 0 0 1-1.004 0 .502.502 0 0 1 1.004 0zm.369-1.764a.503.503 0 0 1-.502.503.502.502 0 1 1 0-1.005c.277 0 .502.226.502.502zm-.34 7.36a.665.665 0 0 1-1.33 0c0-.366.298-.666.665-.666.367 0 .665.3.665.666zm-1.311-2.493a.665.665 0 0 1-.667.666c-.894 0-.665-.061-.665-.666 0-.366.299-.663.665-.663.368 0 .667.296.667.663zm4.33 4.906a.948.948 0 0 1-1.894 0 .947.947 0 0 1 1.894 0zm6.57 1.648a.95.95 0 0 1-.948.949.949.949 0 0 1-.946-.949.947.947 0 1 1 1.894 0zm-3.335-.431a1.084 1.084 0 1 1-2.17 0 1.086 1.086 0 0 1 2.17 0zm-7.835-2.165c0 .599-.485 1.084-1.085 1.084s-1.085-.485-1.085-1.084a1.086 1.086 0 0 1 2.17 0z"/></g><path fill-rule="evenodd" clip-rule="evenodd" fill="#8AC645" d="M37.502 16.949c1.755 7.703 5.08 14.228 9.095 20.442.406.628.585.606.585.606-.785 2.605.45 5.97 2.459 7.436 2.164 1.575 4.006 2.744 6.855 2.724-.744 2.278-1.292 3.579-2.707 5.293-2.292 2.777-5.069 4.917-8.304 6.618-1.806.948-3.513 1.354-5.445 1.282-3.152-.124-6-1.731-6.201-4.873-.249-3.913 1.917-6.812 5.629-9.218 1.279-.827 1.95-1.796 2.682-2.873.809-1.191.622-2.445-.132-3.714a24.777 24.777 0 0 0-2.877-3.88c-1.801-1.991-2.358-4.229-2.562-6.701-.354-4.283-.29-8.541.923-13.142z"/><linearGradient id="f" gradientUnits="userSpaceOnUse" x1="36.384" y1="29.919" x2="47.179" y2="29.919"><stop offset=".363" stop-color="#8ac645"/><stop offset=".377" stop-color="#87c344"/><stop offset=".663" stop-color="#6da037"/><stop offset=".876" stop-color="#5b8a2e"/><stop offset=".991" stop-color="#54822a"/></linearGradient><path fill-rule="evenodd" clip-rule="evenodd" fill="url(#f)" d="M47.179 38.002s-4.059 2.26-4.546 4.817c0 0 .056-2.558-3.729-6.256 0 0-1.594-1.784-2.116-4.86-.759-4.468-.414-11.141.737-14.684l1.292 4.662 1.548 4.158 1.677 3.663 2.748 5.016 1.619 2.612.77.872z"/><path fill="#FFF" d="M34.685 52.796a.144.144 0 0 1-.145.144.143.143 0 0 1-.143-.144c0-.08.064-.146.143-.146.081 0 .145.066.145.146zm-.191 1.334a.144.144 0 0 1-.288 0c0-.079.065-.144.144-.144.079 0 .144.065.144.144zm-.475-.188a.287.287 0 0 1-.289.287.287.287 0 0 1-.288-.287.288.288 0 1 1 .577 0z"/><path d="M196.225 53.133c0-.147.051-.27.152-.368a.528.528 0 0 1 .381-.146.53.53 0 0 1 .379.146.49.49 0 0 1 .152.368c0 .146-.051.27-.152.367s-.229.146-.379.146c-.152 0-.279-.049-.381-.146s-.152-.22-.152-.367zm.076 1.935h.887v6.125h-.887v-6.125zm2.242 3.051c0-.465.092-.902.273-1.311s.432-.766.748-1.072a3.522 3.522 0 0 1 2.464-.986c.482 0 .934.087 1.355.263.424.176.793.416 1.109.723s.566.664.748 1.072.273.846.273 1.311-.092.902-.273 1.311-.432.766-.748 1.072a3.522 3.522 0 0 1-2.464.987c-.482 0-.934-.088-1.355-.264-.424-.176-.793-.416-1.109-.723s-.566-.664-.748-1.072-.273-.846-.273-1.311zm.889 0c0 .344.066.668.203.975.135.305.32.572.557.801s.514.41.83.539c.316.131.652.197 1.008.197s.691-.066 1.008-.197c.316-.129.594-.311.83-.539s.422-.496.557-.801c.137-.307.203-.631.203-.975s-.066-.668-.203-.975a2.528 2.528 0 0 0-.557-.803 2.62 2.62 0 0 0-1.838-.734 2.646 2.646 0 0 0-1.838.734c-.236.23-.422.496-.557.803a2.36 2.36 0 0 0-.203.975z"/></svg>